# xmcd CD database file
#
# Track frame offsets:
#	150
#	23382
#	49125
#	68460
#	102525
#	124060
#	142320
#	164125
#	196285
#	219740
#	239777
#	267872
#
# Disc length: 3960 seconds
#
# Revision: 0
# Processed by: cddbd v1.5.1PL2 Copyright (c) Steve Scherf et al.
# Submitted via: CDex 1.50Beta7
#
DISCID=ba0f760c
DTITLE=Jazziz - Guitars Volume 4
DYEAR=2006
DGENRE=Jazz
TTITLE0=Lee Ritenour - Smoke N' Mirrors
TTITLE1=Pat Martino - Unit 7
TTITLE2=Mike Stern - Good Question
TTITLE3=Steve Khan - El Vinon
TTITLE4=Marilyn Scott - Icebox
TTITLE5=Ulf Wakenius - Dancing
TTITLE6=Mimi Fox - While Bangkok Sleeps
TTITLE7=Chieli Minucci - Without You
TTITLE8=Brian Nova - Where's Buddy?
TTITLE9=Doc Powell - Me Myself and Rio
TTITLE10=Marcos Amorim - Coisas Demais Por Fazer/ Many Things to Do
TTITLE11=Dom Minasi - Transformation
EXTD=YEAR: 2006
EXTT0=
EXTT1=
EXTT2=
EXTT3=
EXTT4=
EXTT5=
EXTT6=
EXTT7=
EXTT8=
EXTT9=
EXTT10=
EXTT11=
PLAYORDER=
